<svg xmlns="http://www.w3.org/2000/svg" xmlns:xlink="http://www.w3.org/1999/xlink" width="130" zoomAndPan="magnify" viewBox="0 0 97.5 30.000001" height="40" preserveAspectRatio="xMidYMid meet" version="1.2"><defs><clipPath id="18d81a7b73"><path d="M 60 6 L 79.671875 6 L 79.671875 24 L 60 24 Z M 60 6 "/></clipPath><clipPath id="2762d57a63"><path d="M 66 17 L 76 17 L 76 27.503906 L 66 27.503906 Z M 66 17 "/></clipPath><clipPath id="27ed7f88f7"><path d="M 56.589844 1.375 L 67 1.375 L 67 24 L 56.589844 24 Z M 56.589844 1.375 "/></clipPath><clipPath id="a0022e52e4"><path d="M 30 21.144531 L 58.917969 21.144531 L 58.917969 24 L 30 24 Z M 30 21.144531 "/></clipPath><clipPath id="5c8110ff1d"><path d="M 29 21.144531 L 33 21.144531 L 33 24 L 29 24 Z M 29 21.144531 "/></clipPath><clipPath id="36d9c3cf10"><path d="M 27 21.144531 L 31 21.144531 L 31 24 L 27 24 Z M 27 21.144531 "/></clipPath><clipPath id="6aa2e55695"><path d="M 26 21.144531 L 29 21.144531 L 29 24 L 26 24 Z M 26 21.144531 "/></clipPath><clipPath id="30a034fcd6"><path d="M 25 21.144531 L 28 21.144531 L 28 24 L 25 24 Z M 25 21.144531 "/></clipPath><clipPath id="df15c80072"><path d="M 24.261719 21.144531 L 27 21.144531 L 27 24 L 24.261719 24 Z M 24.261719 21.144531 "/></clipPath></defs><g id="23588db4b7"><g style="fill:#3d3a3a;fill-opacity:1;"><g transform="translate(18.721454, 11.322326)"><path style="stroke:none" d="M 4.90625 0 L 2.828125 0 L 2.703125 -1.40625 L 1.0625 -1.40625 L 0.4375 0 L -0.421875 0 L 2.1875 -5.609375 L 4.296875 -5.609375 Z M 1.359375 -2.046875 L 2.640625 -2.046875 L 2.4375 -4.453125 Z M 1.359375 -2.046875 "/></g></g><g style="fill:#3d3a3a;fill-opacity:1;"><g transform="translate(24.03971, 11.322326)"><path style="stroke:none" d="M 4.71875 0 L 2.640625 0 L 1.65625 -4.0625 L 0.796875 0 L 0 0 L 1.1875 -5.609375 L 3.3125 -5.609375 L 4.234375 -1.5 L 5.109375 -5.609375 L 5.921875 -5.609375 Z M 4.71875 0 "/></g></g><g style="fill:#3d3a3a;fill-opacity:1;"><g transform="translate(29.729005, 11.322326)"><path style="stroke:none" d="M 3.140625 -2.5625 L 5.4375 -2.5625 L 4.921875 0 L 3.875 0 L 3.703125 -0.5625 L 3.671875 -0.5625 C 3.515625 -0.382812 3.332031 -0.234375 3.125 -0.109375 C 2.914062 0.015625 2.644531 0.078125 2.3125 0.078125 C 2.050781 0.078125 1.800781 0.0351562 1.5625 -0.046875 C 1.320312 -0.140625 1.109375 -0.28125 0.921875 -0.46875 C 0.734375 -0.65625 0.582031 -0.894531 0.46875 -1.1875 C 0.363281 -1.488281 0.3125 -1.851562 0.3125 -2.28125 C 0.3125 -2.738281 0.378906 -3.171875 0.515625 -3.578125 C 0.660156 -3.992188 0.875 -4.359375 1.15625 -4.671875 C 1.4375 -4.992188 1.789062 -5.242188 2.21875 -5.421875 C 2.644531 -5.609375 3.140625 -5.703125 3.703125 -5.703125 C 4.140625 -5.703125 4.519531 -5.648438 4.84375 -5.546875 C 5.164062 -5.453125 5.472656 -5.34375 5.765625 -5.21875 L 5.4375 -3.5 L 3.9375 -3.5 C 3.9375 -3.5625 3.941406 -3.632812 3.953125 -3.71875 C 3.972656 -3.8125 3.984375 -3.90625 3.984375 -4 C 3.992188 -4.101562 4 -4.203125 4 -4.296875 C 4.007812 -4.390625 4.015625 -4.472656 4.015625 -4.546875 C 4.015625 -4.585938 4.007812 -4.640625 4 -4.703125 C 4 -4.765625 3.984375 -4.828125 3.953125 -4.890625 C 3.929688 -4.953125 3.894531 -5 3.84375 -5.03125 C 3.800781 -5.070312 3.738281 -5.09375 3.65625 -5.09375 C 3.5 -5.09375 3.359375 -5.03125 3.234375 -4.90625 C 3.109375 -4.78125 2.992188 -4.609375 2.890625 -4.390625 C 2.785156 -4.179688 2.695312 -3.945312 2.625 -3.6875 C 2.550781 -3.425781 2.488281 -3.15625 2.4375 -2.875 C 2.394531 -2.601562 2.359375 -2.335938 2.328125 -2.078125 C 2.304688 -1.816406 2.296875 -1.585938 2.296875 -1.390625 C 2.296875 -1.328125 2.296875 -1.25 2.296875 -1.15625 C 2.304688 -1.070312 2.328125 -0.988281 2.359375 -0.90625 C 2.390625 -0.820312 2.4375 -0.75 2.5 -0.6875 C 2.5625 -0.625 2.648438 -0.59375 2.765625 -0.59375 C 2.960938 -0.59375 3.148438 -0.695312 3.328125 -0.90625 C 3.515625 -1.125 3.65625 -1.476562 3.75 -1.96875 L 3 -1.96875 Z M 3.140625 -2.5625 "/></g></g><g style="fill:#3d3a3a;fill-opacity:1;"><g transform="translate(35.400631, 11.322326)"><path style="stroke:none" d="M 2.59375 -3.171875 L 4.78125 -5.625 L 5.78125 -5.625 L 3.796875 -3.46875 L 5.140625 0 L 3.203125 0 L 2.4375 -2.46875 L 1.90625 0 L 0 0 L 1.1875 -5.609375 L 3.109375 -5.609375 Z M 2.59375 -3.171875 "/></g></g><g style="fill:#3d3a3a;fill-opacity:1;"><g transform="translate(40.771892, 11.322326)"><path style="stroke:none" d="M 2.359375 -2 C 2.328125 -1.875 2.300781 -1.765625 2.28125 -1.671875 C 2.269531 -1.578125 2.265625 -1.488281 2.265625 -1.40625 C 2.265625 -1.195312 2.335938 -1.03125 2.484375 -0.90625 C 2.628906 -0.78125 2.84375 -0.71875 3.125 -0.71875 C 3.332031 -0.71875 3.5 -0.753906 3.625 -0.828125 C 3.757812 -0.898438 3.867188 -0.992188 3.953125 -1.109375 C 4.035156 -1.234375 4.101562 -1.367188 4.15625 -1.515625 C 4.207031 -1.671875 4.253906 -1.832031 4.296875 -2 L 5.046875 -5.609375 L 5.84375 -5.609375 L 5.078125 -1.984375 C 5.015625 -1.703125 4.925781 -1.4375 4.8125 -1.1875 C 4.707031 -0.945312 4.550781 -0.726562 4.34375 -0.53125 C 4.132812 -0.34375 3.863281 -0.191406 3.53125 -0.078125 C 3.195312 0.0234375 2.785156 0.078125 2.296875 0.078125 C 1.617188 0.078125 1.117188 -0.03125 0.796875 -0.25 C 0.472656 -0.476562 0.3125 -0.820312 0.3125 -1.28125 C 0.3125 -1.488281 0.335938 -1.75 0.390625 -2.0625 C 0.441406 -2.382812 0.507812 -2.734375 0.59375 -3.109375 L 1.125 -5.609375 L 3.140625 -5.609375 Z M 2.359375 -2 "/></g></g><g style="fill:#3d3a3a;fill-opacity:1;"><g transform="translate(46.337507, 11.322326)"><path style="stroke:none" d="M 5.390625 -4.9375 L 3.96875 -4.9375 L 2.90625 0 L 1 0 L 2.046875 -4.9375 L 0.640625 -4.9375 L 0.8125 -5.609375 L 5.53125 -5.609375 Z M 5.390625 -4.9375 "/></g></g><g style="fill:#3d3a3a;fill-opacity:1;"><g transform="translate(51.240548, 11.322326)"><path style="stroke:none" d="M 1.90625 0 L 0 0 L 1.1875 -5.609375 L 3.109375 -5.609375 Z M 1.90625 0 "/></g></g><g style="fill:#3d3a3a;fill-opacity:1;"><g transform="translate(54.120534, 11.322326)"><path style="stroke:none" d="M 4.71875 0 L 2.640625 0 L 1.65625 -4.0625 L 0.796875 0 L 0 0 L 1.1875 -5.609375 L 3.3125 -5.609375 L 4.234375 -1.5 L 5.109375 -5.609375 L 5.921875 -5.609375 Z M 4.71875 0 "/></g></g><g style="fill:#3d3a3a;fill-opacity:1;"><g transform="translate(41.962768, 18.399855)"><path style="stroke:none" d="M 4.808594 0.570312 L 2.253906 0.570312 L 2.089844 -1.328125 L 2.65625 -1.378906 L 2.65625 -0.808594 L 1.050781 -0.808594 L 1.050781 -1.378906 L 1.570312 -1.148438 L 0.804688 0.570312 L -1.300781 0.570312 L 1.789062 -6.078125 L 4.71875 -6.078125 L 5.441406 0.570312 Z M 4.808594 -0.570312 L 4.808594 0 L 4.242188 0.0625 L 3.644531 -5.449219 L 4.207031 -5.511719 L 4.207031 -4.941406 L 2.152344 -4.941406 L 2.152344 -5.511719 L 2.667969 -5.269531 L 0.109375 0.238281 L -0.40625 0 L -0.40625 -0.570312 L 0.433594 -0.570312 L 0.433594 0 L -0.0859375 -0.230469 L 0.679688 -1.949219 L 3.175781 -1.949219 L 3.34375 -0.0507812 L 2.777344 0 L 2.777344 -0.570312 Z M 1.335938 -2.582031 L 2.59375 -2.582031 L 2.59375 -2.011719 L 2.027344 -1.964844 L 1.828125 -4.324219 L 2.394531 -4.375 L 2.914062 -4.140625 L 1.855469 -1.78125 L 1.335938 -2.011719 Z M 0.457031 -1.445312 L 2.777344 -6.617188 L 3.214844 -1.445312 Z M 0.457031 -1.445312 "/></g></g><g style="fill:#3d3a3a;fill-opacity:1;"><g transform="translate(47.186987, 18.399855)"><path style="stroke:none" d="M 0.121094 -2.609375 L 2.324219 -2.609375 L 2.324219 -2.039062 C 2.324219 -1.980469 2.3125 -1.898438 2.289062 -1.792969 C 2.273438 -1.730469 2.257812 -1.65625 2.242188 -1.570312 C 2.226562 -1.488281 2.214844 -1.398438 2.199219 -1.296875 C 2.1875 -1.210938 2.183594 -1.136719 2.183594 -1.066406 C 2.183594 -1.042969 2.1875 -1.015625 2.191406 -0.988281 C 2.191406 -0.980469 2.195312 -0.976562 2.195312 -0.972656 C 2.179688 -1 2.164062 -1.023438 2.140625 -1.039062 C 2.097656 -1.066406 2.058594 -1.082031 2.023438 -1.082031 C 2.003906 -1.082031 1.984375 -1.074219 1.960938 -1.0625 C 1.941406 -1.054688 1.929688 -1.042969 1.921875 -1.03125 C 1.933594 -1.050781 1.949219 -1.089844 1.972656 -1.152344 C 2.003906 -1.242188 2.035156 -1.355469 2.0625 -1.496094 L 3.035156 -6.078125 L 6.085938 -6.078125 L 5.085938 -1.410156 C 4.988281 -0.96875 4.816406 -0.609375 4.566406 -0.324219 C 4.332031 -0.0546875 4.058594 0.15625 3.75 0.304688 C 3.453125 0.445312 3.144531 0.539062 2.8125 0.585938 C 2.515625 0.628906 2.226562 0.648438 1.953125 0.648438 C 1.628906 0.648438 1.347656 0.625 1.105469 0.582031 C 0.851562 0.535156 0.628906 0.46875 0.425781 0.382812 C 0.222656 0.292969 0.0390625 0.183594 -0.128906 0.0507812 C -0.269531 -0.0625 -0.410156 -0.183594 -0.550781 -0.316406 L -0.777344 -0.535156 L -0.339844 -2.609375 Z M 0.121094 -1.46875 L 0.121094 -2.039062 L 0.679688 -1.921875 L 0.402344 -0.609375 L -0.15625 -0.730469 L 0.238281 -1.140625 C 0.351562 -1.03125 0.464844 -0.929688 0.582031 -0.839844 C 0.667969 -0.769531 0.769531 -0.710938 0.882812 -0.660156 C 1 -0.609375 1.144531 -0.570312 1.308594 -0.539062 C 1.480469 -0.507812 1.699219 -0.492188 1.953125 -0.492188 C 2.175781 -0.492188 2.410156 -0.507812 2.65625 -0.542969 C 2.867188 -0.570312 3.066406 -0.632812 3.253906 -0.722656 C 3.425781 -0.804688 3.578125 -0.921875 3.710938 -1.074219 C 3.832031 -1.210938 3.917969 -1.402344 3.972656 -1.644531 L 4.824219 -5.628906 L 5.378906 -5.511719 L 5.378906 -4.941406 L 3.496094 -4.941406 L 3.496094 -5.511719 L 4.054688 -5.390625 L 3.179688 -1.261719 C 3.09375 -0.855469 2.980469 -0.554688 2.84375 -0.367188 C 2.746094 -0.230469 2.628906 -0.125 2.488281 -0.0546875 C 2.34375 0.0195312 2.191406 0.0585938 2.023438 0.0585938 C 1.824219 0.0585938 1.648438 0.00390625 1.496094 -0.0976562 C 1.363281 -0.1875 1.261719 -0.304688 1.1875 -0.441406 C 1.132812 -0.546875 1.09375 -0.664062 1.070312 -0.785156 C 1.054688 -0.878906 1.042969 -0.976562 1.042969 -1.066406 C 1.042969 -1.183594 1.054688 -1.3125 1.070312 -1.445312 C 1.085938 -1.566406 1.105469 -1.675781 1.125 -1.78125 C 1.140625 -1.878906 1.160156 -1.960938 1.175781 -2.035156 C 1.179688 -2.058594 1.183594 -2.078125 1.1875 -2.089844 C 1.183594 -2.074219 1.183594 -2.058594 1.183594 -2.039062 L 1.753906 -2.039062 L 1.753906 -1.46875 Z M 0.121094 -1.46875 "/></g></g><g style="fill:#3d3a3a;fill-opacity:1;"><g transform="translate(52.30707, 18.399855)"><path style="stroke:none" d="M 4.808594 0.570312 L 2.253906 0.570312 L 2.089844 -1.328125 L 2.65625 -1.378906 L 2.65625 -0.808594 L 1.050781 -0.808594 L 1.050781 -1.378906 L 1.570312 -1.148438 L 0.804688 0.570312 L -1.300781 0.570312 L 1.789062 -6.078125 L 4.71875 -6.078125 L 5.441406 0.570312 Z M 4.808594 -0.570312 L 4.808594 0 L 4.242188 0.0625 L 3.644531 -5.449219 L 4.207031 -5.511719 L 4.207031 -4.941406 L 2.152344 -4.941406 L 2.152344 -5.511719 L 2.667969 -5.269531 L 0.109375 0.238281 L -0.40625 0 L -0.40625 -0.570312 L 0.433594 -0.570312 L 0.433594 0 L -0.0859375 -0.230469 L 0.679688 -1.949219 L 3.175781 -1.949219 L 3.34375 -0.0507812 L 2.777344 0 L 2.777344 -0.570312 Z M 1.335938 -2.582031 L 2.59375 -2.582031 L 2.59375 -2.011719 L 2.027344 -1.964844 L 1.828125 -4.324219 L 2.394531 -4.375 L 2.914062 -4.140625 L 1.855469 -1.78125 L 1.335938 -2.011719 Z M 0.457031 -1.445312 L 2.777344 -6.617188 L 3.214844 -1.445312 Z M 0.457031 -1.445312 "/></g></g><g style="fill:#ffffff;fill-opacity:1;"><g transform="translate(41.962768, 18.399855)"><path style="stroke:none" d="M 4.796875 0 L 2.78125 0 L 2.65625 -1.375 L 1.046875 -1.375 L 0.4375 0 L -0.40625 0 L 2.15625 -5.5 L 4.203125 -5.5 Z M 1.328125 -2.015625 L 2.59375 -2.015625 L 2.390625 -4.375 Z M 1.328125 -2.015625 "/></g></g><g style="fill:#ffffff;fill-opacity:1;"><g transform="translate(47.186987, 18.399855)"><path style="stroke:none" d="M 0.125 -2.03125 L 1.75 -2.03125 C 1.75 -2.019531 1.738281 -1.976562 1.71875 -1.90625 C 1.707031 -1.84375 1.691406 -1.765625 1.671875 -1.671875 C 1.660156 -1.578125 1.644531 -1.472656 1.625 -1.359375 C 1.613281 -1.253906 1.609375 -1.15625 1.609375 -1.0625 C 1.609375 -1.007812 1.613281 -0.953125 1.625 -0.890625 C 1.632812 -0.828125 1.65625 -0.765625 1.6875 -0.703125 C 1.71875 -0.648438 1.757812 -0.601562 1.8125 -0.5625 C 1.875 -0.53125 1.941406 -0.515625 2.015625 -0.515625 C 2.171875 -0.515625 2.289062 -0.578125 2.375 -0.703125 C 2.46875 -0.828125 2.550781 -1.050781 2.625 -1.375 L 3.5 -5.5 L 5.375 -5.5 L 4.53125 -1.53125 C 4.445312 -1.1875 4.3125 -0.90625 4.125 -0.6875 C 3.945312 -0.476562 3.738281 -0.316406 3.5 -0.203125 C 3.257812 -0.0859375 3.003906 -0.015625 2.734375 0.015625 C 2.460938 0.0546875 2.203125 0.078125 1.953125 0.078125 C 1.660156 0.078125 1.410156 0.0546875 1.203125 0.015625 C 0.992188 -0.015625 0.8125 -0.0664062 0.65625 -0.140625 C 0.5 -0.210938 0.351562 -0.296875 0.21875 -0.390625 C 0.09375 -0.492188 -0.03125 -0.609375 -0.15625 -0.734375 Z M 0.125 -2.03125 "/></g></g><g style="fill:#ffffff;fill-opacity:1;"><g transform="translate(52.30707, 18.399855)"><path style="stroke:none" d="M 4.796875 0 L 2.78125 0 L 2.65625 -1.375 L 1.046875 -1.375 L 0.4375 0 L -0.40625 0 L 2.15625 -5.5 L 4.203125 -5.5 Z M 1.328125 -2.015625 L 2.59375 -2.015625 L 2.390625 -4.375 Z M 1.328125 -2.015625 "/></g></g><g clip-rule="nonzero" clip-path="url(#18d81a7b73)"><path style=" stroke:none;fill-rule:nonzero;fill:#3d3a3a;fill-opacity:1;" d="M 77.367188 23.519531 L 75.0625 23.519531 C 74.550781 23.519531 74.140625 23.105469 74.140625 22.597656 C 74.140625 22.089844 74.550781 21.675781 75.0625 21.675781 L 76.601562 21.675781 L 77.84375 15.046875 C 77.828125 11.65625 74.933594 8.761719 71.371094 8.761719 L 65.316406 8.761719 L 62.378906 21.675781 L 67.683594 21.675781 C 68.191406 21.675781 68.605469 22.089844 68.605469 22.597656 C 68.605469 23.105469 68.191406 23.519531 67.683594 23.519531 L 61.226562 23.519531 C 60.945312 23.519531 60.679688 23.390625 60.503906 23.171875 C 60.328125 22.957031 60.261719 22.667969 60.324219 22.394531 L 63.679688 7.636719 C 63.773438 7.214844 64.148438 6.917969 64.578125 6.917969 L 71.371094 6.917969 C 75.949219 6.917969 79.671875 10.640625 79.671875 15.21875 L 78.273438 22.765625 C 78.191406 23.203125 77.8125 23.519531 77.367188 23.519531 Z M 77.367188 23.519531 "/></g><g clip-rule="nonzero" clip-path="url(#2762d57a63)"><path style=" stroke:none;fill-rule:nonzero;fill:#3d3a3a;fill-opacity:1;" d="M 71.371094 27.210938 C 68.828125 27.210938 66.761719 25.140625 66.761719 22.597656 C 66.761719 20.054688 68.828125 17.984375 71.371094 17.984375 C 73.914062 17.984375 75.984375 20.054688 75.984375 22.597656 C 75.984375 25.140625 73.914062 27.210938 71.371094 27.210938 Z M 71.371094 19.832031 C 69.847656 19.832031 68.605469 21.070312 68.605469 22.597656 C 68.605469 24.125 69.847656 25.363281 71.371094 25.363281 C 72.898438 25.363281 74.140625 24.125 74.140625 22.597656 C 74.140625 21.070312 72.898438 19.832031 71.371094 19.832031 Z M 71.371094 19.832031 "/></g><g clip-rule="nonzero" clip-path="url(#27ed7f88f7)"><path style=" stroke:none;fill-rule:nonzero;fill:#3d3a3a;fill-opacity:1;" d="M 61.226562 23.519531 L 54.769531 23.519531 C 54.261719 23.519531 53.847656 23.105469 53.847656 22.597656 C 53.847656 22.089844 54.261719 21.675781 54.769531 21.675781 L 60.488281 21.675781 L 64.679688 3.226562 L 43.699219 3.226562 C 43.191406 3.226562 42.777344 2.8125 42.777344 2.304688 C 42.777344 1.796875 43.191406 1.382812 43.699219 1.382812 L 65.835938 1.382812 C 66.117188 1.382812 66.382812 1.511719 66.558594 1.730469 C 66.734375 1.945312 66.800781 2.234375 66.738281 2.507812 L 62.125 22.800781 C 62.03125 23.222656 61.65625 23.519531 61.226562 23.519531 Z M 61.226562 23.519531 "/></g><g clip-rule="nonzero" clip-path="url(#a0022e52e4)"><path style=" stroke:none;fill-rule:nonzero;fill:#3d3a3a;fill-opacity:1;" d="M 57.246094 21.144531 L 58.875 23.96875 L 32.40625 23.96875 L 30.777344 21.144531 Z M 57.246094 21.144531 "/></g><g clip-rule="nonzero" clip-path="url(#5c8110ff1d)"><path style=" stroke:none;fill-rule:nonzero;fill:#3d3a3a;fill-opacity:1;" d="M 30.496094 21.144531 L 32.125 23.96875 L 30.714844 23.96875 L 29.082031 21.144531 Z M 30.496094 21.144531 "/></g><g clip-rule="nonzero" clip-path="url(#36d9c3cf10)"><path style=" stroke:none;fill-rule:nonzero;fill:#3d3a3a;fill-opacity:1;" d="M 28.707031 21.144531 L 30.335938 23.96875 L 29.207031 23.96875 L 27.578125 21.144531 Z M 28.707031 21.144531 "/></g><g clip-rule="nonzero" clip-path="url(#6aa2e55695)"><path style=" stroke:none;fill-rule:nonzero;fill:#3d3a3a;fill-opacity:1;" d="M 27.105469 21.144531 L 28.734375 23.96875 L 27.832031 23.96875 L 26.203125 21.144531 Z M 27.105469 21.144531 "/></g><g clip-rule="nonzero" clip-path="url(#30a034fcd6)"><path style=" stroke:none;fill-rule:nonzero;fill:#3d3a3a;fill-opacity:1;" d="M 25.636719 21.144531 L 27.269531 23.96875 L 26.816406 23.96875 L 25.1875 21.144531 Z M 25.636719 21.144531 "/></g><g clip-rule="nonzero" clip-path="url(#df15c80072)"><path style=" stroke:none;fill-rule:nonzero;fill:#3d3a3a;fill-opacity:1;" d="M 24.527344 21.144531 L 26.15625 23.96875 L 25.929688 23.96875 L 24.300781 21.144531 Z M 24.527344 21.144531 "/></g><g style="fill:#3d3a3a;fill-opacity:1;"><g transform="translate(20.320367, 27.627513)"><path style="stroke:none" d="M 0.9375 0.03125 C 0.75 0.03125 0.585938 -0.0078125 0.453125 -0.09375 C 0.328125 -0.175781 0.238281 -0.285156 0.1875 -0.421875 C 0.132812 -0.566406 0.125 -0.734375 0.15625 -0.921875 C 0.195312 -1.109375 0.265625 -1.269531 0.359375 -1.40625 C 0.460938 -1.539062 0.585938 -1.644531 0.734375 -1.71875 C 0.890625 -1.789062 1.050781 -1.828125 1.21875 -1.828125 C 1.375 -1.828125 1.507812 -1.796875 1.625 -1.734375 C 1.75 -1.679688 1.847656 -1.597656 1.921875 -1.484375 C 1.992188 -1.378906 2.035156 -1.257812 2.046875 -1.125 L 1.625 -1.125 C 1.613281 -1.21875 1.566406 -1.289062 1.484375 -1.34375 C 1.410156 -1.40625 1.320312 -1.4375 1.21875 -1.4375 C 1.113281 -1.4375 1.015625 -1.410156 0.921875 -1.359375 C 0.828125 -1.316406 0.75 -1.253906 0.6875 -1.171875 C 0.632812 -1.085938 0.597656 -0.992188 0.578125 -0.890625 C 0.554688 -0.785156 0.554688 -0.691406 0.578125 -0.609375 C 0.609375 -0.523438 0.65625 -0.457031 0.71875 -0.40625 C 0.789062 -0.363281 0.875 -0.34375 0.96875 -0.34375 C 1.082031 -0.34375 1.191406 -0.375 1.296875 -0.4375 C 1.398438 -0.5 1.484375 -0.582031 1.546875 -0.6875 L 1.96875 -0.6875 C 1.90625 -0.53125 1.820312 -0.398438 1.71875 -0.296875 C 1.625 -0.191406 1.507812 -0.109375 1.375 -0.046875 C 1.238281 0.00390625 1.09375 0.03125 0.9375 0.03125 Z M 0.9375 0.03125 "/></g></g><g style="fill:#3d3a3a;fill-opacity:1;"><g transform="translate(23.211281, 27.627513)"><path style="stroke:none" d="M 0.078125 0 L 0.4375 -1.796875 L 1.625 -1.796875 L 1.546875 -1.453125 L 0.78125 -1.453125 L 0.703125 -1.078125 L 1.40625 -1.078125 L 1.34375 -0.734375 L 0.640625 -0.734375 L 0.5625 -0.34375 L 1.359375 -0.34375 L 1.28125 0 Z M 0.078125 0 "/></g></g><g style="fill:#3d3a3a;fill-opacity:1;"><g transform="translate(25.589771, 27.627513)"><path style="stroke:none" d="M 0.078125 0 L 0.4375 -1.796875 L 1.125 -1.796875 C 1.269531 -1.796875 1.390625 -1.765625 1.484375 -1.703125 C 1.585938 -1.640625 1.660156 -1.554688 1.703125 -1.453125 C 1.742188 -1.359375 1.75 -1.242188 1.71875 -1.109375 C 1.675781 -0.910156 1.582031 -0.757812 1.4375 -0.65625 C 1.300781 -0.550781 1.117188 -0.5 0.890625 -0.5 L 0.59375 -0.5 L 0.5 0 Z M 0.65625 -0.84375 L 0.921875 -0.84375 C 1.023438 -0.84375 1.109375 -0.867188 1.171875 -0.921875 C 1.242188 -0.984375 1.289062 -1.054688 1.3125 -1.140625 C 1.332031 -1.234375 1.316406 -1.304688 1.265625 -1.359375 C 1.222656 -1.410156 1.148438 -1.4375 1.046875 -1.4375 L 0.78125 -1.4375 Z M 0.65625 -0.84375 "/></g></g><g style="fill:#3d3a3a;fill-opacity:1;"><g transform="translate(28.119425, 27.627513)"><path style="stroke:none" d="M -0.109375 0 L 0.953125 -1.796875 L 1.359375 -1.796875 L 1.71875 0 L 1.3125 0 L 1.25 -0.3125 L 0.53125 -0.3125 L 0.34375 0 Z M 0.703125 -0.625 L 1.203125 -0.625 L 1.078125 -1.28125 Z M 0.703125 -0.625 "/></g></g><g style="fill:#3d3a3a;fill-opacity:1;"><g transform="translate(30.813056, 27.627513)"><path style="stroke:none" d="M 0.5 0 L 0.796875 -1.40625 L 0.21875 -1.40625 L 0.296875 -1.796875 L 1.84375 -1.796875 L 1.765625 -1.40625 L 1.203125 -1.40625 L 0.921875 0 Z M 0.5 0 "/></g></g><g style="fill:#3d3a3a;fill-opacity:1;"><g transform="translate(33.335024, 27.627513)"><path style="stroke:none" d="M 0.046875 0.203125 C 0.140625 0.179688 0.207031 0.125 0.25 0.03125 L 0.21875 0.03125 C 0.144531 0.03125 0.0859375 0.00390625 0.046875 -0.046875 C 0.015625 -0.0976562 0.00390625 -0.15625 0.015625 -0.21875 C 0.0234375 -0.289062 0.0507812 -0.34375 0.09375 -0.375 C 0.144531 -0.414062 0.207031 -0.4375 0.28125 -0.4375 C 0.363281 -0.4375 0.425781 -0.398438 0.46875 -0.328125 C 0.519531 -0.265625 0.535156 -0.175781 0.515625 -0.0625 C 0.492188 0.0195312 0.457031 0.09375 0.40625 0.15625 C 0.363281 0.226562 0.304688 0.285156 0.234375 0.328125 C 0.160156 0.378906 0.0820312 0.40625 0 0.40625 Z M 0.046875 0.203125 "/></g></g><g style="fill:#3d3a3a;fill-opacity:1;"><g transform="translate(34.896197, 27.627513)"><path style="stroke:none" d=""/></g></g><g style="fill:#3d3a3a;fill-opacity:1;"><g transform="translate(36.321575, 27.627513)"><path style="stroke:none" d="M -0.109375 0 L 0.953125 -1.796875 L 1.359375 -1.796875 L 1.71875 0 L 1.3125 0 L 1.25 -0.3125 L 0.53125 -0.3125 L 0.34375 0 Z M 0.703125 -0.625 L 1.203125 -0.625 L 1.078125 -1.28125 Z M 0.703125 -0.625 "/></g></g><g style="fill:#3d3a3a;fill-opacity:1;"><g transform="translate(39.015205, 27.627513)"><path style="stroke:none" d="M 0.078125 0 L 0.4375 -1.796875 L 0.765625 -1.796875 L 1.21875 -0.859375 L 2.03125 -1.796875 L 2.40625 -1.796875 L 2.046875 0 L 1.640625 0 L 1.75 -0.59375 L 1.859375 -1.078125 L 1.296875 -0.4375 L 1.015625 -0.4375 L 0.71875 -1.078125 L 0.609375 -0.59375 L 0.5 0 Z M 0.078125 0 "/></g></g><g style="fill:#3d3a3a;fill-opacity:1;"><g transform="translate(42.239197, 27.627513)"><path style="stroke:none" d="M -0.109375 0 L 0.953125 -1.796875 L 1.359375 -1.796875 L 1.71875 0 L 1.3125 0 L 1.25 -0.3125 L 0.53125 -0.3125 L 0.34375 0 Z M 0.703125 -0.625 L 1.203125 -0.625 L 1.078125 -1.28125 Z M 0.703125 -0.625 "/></g></g><g style="fill:#3d3a3a;fill-opacity:1;"><g transform="translate(44.932828, 27.627513)"><path style="stroke:none" d="M 0.078125 0 L 0.4375 -1.796875 L 0.765625 -1.796875 L 1.359375 -0.6875 L 1.40625 -0.984375 L 1.578125 -1.796875 L 1.984375 -1.796875 L 1.625 0 L 1.296875 0 L 0.703125 -1.109375 L 0.65625 -0.84375 L 0.484375 0 Z M 0.078125 0 "/></g></g><g style="fill:#3d3a3a;fill-opacity:1;"><g transform="translate(47.728943, 27.627513)"><path style="stroke:none" d="M 0.046875 0.203125 C 0.140625 0.179688 0.207031 0.125 0.25 0.03125 L 0.21875 0.03125 C 0.144531 0.03125 0.0859375 0.00390625 0.046875 -0.046875 C 0.015625 -0.0976562 0.00390625 -0.15625 0.015625 -0.21875 C 0.0234375 -0.289062 0.0507812 -0.34375 0.09375 -0.375 C 0.144531 -0.414062 0.207031 -0.4375 0.28125 -0.4375 C 0.363281 -0.4375 0.425781 -0.398438 0.46875 -0.328125 C 0.519531 -0.265625 0.535156 -0.175781 0.515625 -0.0625 C 0.492188 0.0195312 0.457031 0.09375 0.40625 0.15625 C 0.363281 0.226562 0.304688 0.285156 0.234375 0.328125 C 0.160156 0.378906 0.0820312 0.40625 0 0.40625 Z M 0.046875 0.203125 "/></g></g><g style="fill:#3d3a3a;fill-opacity:1;"><g transform="translate(49.290115, 27.627513)"><path style="stroke:none" d=""/></g></g><g style="fill:#3d3a3a;fill-opacity:1;"><g transform="translate(50.715494, 27.627513)"><path style="stroke:none" d="M 0.5 0 L 0.796875 -1.40625 L 0.21875 -1.40625 L 0.296875 -1.796875 L 1.84375 -1.796875 L 1.765625 -1.40625 L 1.203125 -1.40625 L 0.921875 0 Z M 0.5 0 "/></g></g><g style="fill:#3d3a3a;fill-opacity:1;"><g transform="translate(53.237462, 27.627513)"><path style="stroke:none" d="M 0.84375 0.03125 C 0.6875 0.03125 0.554688 0 0.453125 -0.0625 C 0.347656 -0.125 0.273438 -0.210938 0.234375 -0.328125 C 0.191406 -0.453125 0.1875 -0.59375 0.21875 -0.75 L 0.421875 -1.796875 L 0.84375 -1.796875 L 0.625 -0.765625 C 0.570312 -0.484375 0.65625 -0.34375 0.875 -0.34375 C 1.101562 -0.34375 1.25 -0.484375 1.3125 -0.765625 L 1.515625 -1.796875 L 1.921875 -1.796875 L 1.71875 -0.71875 C 1.664062 -0.476562 1.566406 -0.289062 1.421875 -0.15625 C 1.273438 -0.03125 1.082031 0.03125 0.84375 0.03125 Z M 0.84375 0.03125 "/></g></g><g style="fill:#3d3a3a;fill-opacity:1;"><g transform="translate(55.961839, 27.627513)"><path style="stroke:none" d="M 0.078125 0 L 0.4375 -1.796875 L 0.765625 -1.796875 L 1.359375 -0.6875 L 1.40625 -0.984375 L 1.578125 -1.796875 L 1.984375 -1.796875 L 1.625 0 L 1.296875 0 L 0.703125 -1.109375 L 0.65625 -0.84375 L 0.484375 0 Z M 0.078125 0 "/></g></g><g style="fill:#3d3a3a;fill-opacity:1;"><g transform="translate(58.757954, 27.627513)"><path style="stroke:none" d="M 0.5 0 L 0.796875 -1.40625 L 0.21875 -1.40625 L 0.296875 -1.796875 L 1.84375 -1.796875 L 1.765625 -1.40625 L 1.203125 -1.40625 L 0.921875 0 Z M 0.5 0 "/></g></g><g style="fill:#3d3a3a;fill-opacity:1;"><g transform="translate(61.279923, 27.627513)"><path style="stroke:none" d="M -0.109375 0 L 0.953125 -1.796875 L 1.359375 -1.796875 L 1.71875 0 L 1.3125 0 L 1.25 -0.3125 L 0.53125 -0.3125 L 0.34375 0 Z M 0.703125 -0.625 L 1.203125 -0.625 L 1.078125 -1.28125 Z M 0.703125 -0.625 "/></g></g><g style="fill:#3d3a3a;fill-opacity:1;"><g transform="translate(63.973553, 27.627513)"><path style="stroke:none" d="M 0.71875 0.03125 C 0.570312 0.03125 0.445312 0.0078125 0.34375 -0.03125 C 0.238281 -0.0820312 0.164062 -0.148438 0.125 -0.234375 C 0.0820312 -0.328125 0.0703125 -0.4375 0.09375 -0.5625 L 0.484375 -0.5625 C 0.472656 -0.476562 0.488281 -0.410156 0.53125 -0.359375 C 0.582031 -0.316406 0.65625 -0.296875 0.75 -0.296875 C 0.84375 -0.296875 0.914062 -0.3125 0.96875 -0.34375 C 1.03125 -0.382812 1.066406 -0.429688 1.078125 -0.484375 C 1.085938 -0.546875 1.070312 -0.597656 1.03125 -0.640625 C 0.988281 -0.679688 0.90625 -0.71875 0.78125 -0.75 C 0.582031 -0.789062 0.4375 -0.859375 0.34375 -0.953125 C 0.25 -1.054688 0.21875 -1.1875 0.25 -1.34375 C 0.28125 -1.488281 0.359375 -1.601562 0.484375 -1.6875 C 0.609375 -1.78125 0.773438 -1.828125 0.984375 -1.828125 C 1.203125 -1.828125 1.363281 -1.773438 1.46875 -1.671875 C 1.582031 -1.566406 1.628906 -1.425781 1.609375 -1.25 L 1.21875 -1.25 C 1.226562 -1.320312 1.210938 -1.378906 1.171875 -1.421875 C 1.128906 -1.472656 1.054688 -1.5 0.953125 -1.5 C 0.867188 -1.5 0.800781 -1.476562 0.75 -1.4375 C 0.695312 -1.40625 0.664062 -1.363281 0.65625 -1.3125 C 0.644531 -1.25 0.660156 -1.195312 0.703125 -1.15625 C 0.753906 -1.113281 0.84375 -1.082031 0.96875 -1.0625 C 1.164062 -1.007812 1.304688 -0.929688 1.390625 -0.828125 C 1.484375 -0.734375 1.515625 -0.613281 1.484375 -0.46875 C 1.453125 -0.3125 1.367188 -0.1875 1.234375 -0.09375 C 1.109375 -0.0078125 0.9375 0.03125 0.71875 0.03125 Z M 0.71875 0.03125 "/></g></g></g></svg>