<svg xmlns="http://www.w3.org/2000/svg" xmlns:xlink="http://www.w3.org/1999/xlink" width="200" zoomAndPan="magnify" viewBox="0 0 150 74.999997" height="100" preserveAspectRatio="xMidYMid meet" version="1.2"><defs><clipPath id="ec5f739dd5"><path d="M 102 19 L 147.832031 19 L 147.832031 58 L 102 58 Z M 102 19 "/></clipPath><clipPath id="5ac784df9d"><path d="M 117 44 L 139 44 L 139 66.195312 L 117 66.195312 Z M 117 44 "/></clipPath><clipPath id="07cf82b0bd"><path d="M 93.832031 6.195312 L 118 6.195312 L 118 58 L 93.832031 58 Z M 93.832031 6.195312 "/></clipPath><clipPath id="0321960131"><path d="M 33 52.269531 L 99.285156 52.269531 L 99.285156 59 L 33 59 Z M 33 52.269531 "/></clipPath><clipPath id="198c4d427a"><path d="M 29 52.269531 L 37 52.269531 L 37 59 L 29 59 Z M 29 52.269531 "/></clipPath><clipPath id="59656bd23f"><path d="M 26 52.269531 L 33 52.269531 L 33 59 L 26 59 Z M 26 52.269531 "/></clipPath><clipPath id="107a2ee6a8"><path d="M 22 52.269531 L 29 52.269531 L 29 59 L 22 59 Z M 22 52.269531 "/></clipPath><clipPath id="807ec94d77"><path d="M 20 52.269531 L 26 52.269531 L 26 59 L 20 59 Z M 20 52.269531 "/></clipPath><clipPath id="72b39444a6"><path d="M 18.484375 52.269531 L 23 52.269531 L 23 59 L 18.484375 59 Z M 18.484375 52.269531 "/></clipPath></defs><g id="a09f1fcc69"><g style="fill:#3d3a3a;fill-opacity:1;"><g transform="translate(5.573117, 29.379163)"><path style="stroke:none" d="M 11.40625 0 L 6.59375 0 L 6.296875 -3.28125 L 2.484375 -3.28125 L 1.03125 0 L -0.96875 0 L 5.109375 -13.078125 L 9.984375 -13.078125 Z M 3.171875 -4.78125 L 6.15625 -4.78125 L 5.6875 -10.375 Z M 3.171875 -4.78125 "/></g></g><g style="fill:#3d3a3a;fill-opacity:1;"><g transform="translate(17.968951, 29.379163)"><path style="stroke:none" d="M 10.96875 0 L 6.15625 0 L 3.875 -9.453125 L 1.859375 0 L 0 0 L 2.78125 -13.078125 L 7.703125 -13.078125 L 9.859375 -3.5 L 11.90625 -13.078125 L 13.796875 -13.078125 Z M 10.96875 0 "/></g></g><g style="fill:#3d3a3a;fill-opacity:1;"><g transform="translate(31.229609, 29.379163)"><path style="stroke:none" d="M 7.3125 -5.96875 L 12.640625 -5.96875 L 11.453125 0 L 9.015625 0 L 8.625 -1.3125 L 8.546875 -1.3125 C 8.191406 -0.90625 7.769531 -0.554688 7.28125 -0.265625 C 6.789062 0.0234375 6.15625 0.171875 5.375 0.171875 C 4.769531 0.171875 4.1875 0.0703125 3.625 -0.125 C 3.070312 -0.332031 2.578125 -0.648438 2.140625 -1.078125 C 1.710938 -1.515625 1.367188 -2.082031 1.109375 -2.78125 C 0.847656 -3.476562 0.71875 -4.320312 0.71875 -5.3125 C 0.71875 -6.382812 0.878906 -7.398438 1.203125 -8.359375 C 1.535156 -9.316406 2.03125 -10.160156 2.6875 -10.890625 C 3.351562 -11.628906 4.179688 -12.210938 5.171875 -12.640625 C 6.160156 -13.066406 7.3125 -13.28125 8.625 -13.28125 C 9.644531 -13.28125 10.53125 -13.160156 11.28125 -12.921875 C 12.039062 -12.691406 12.753906 -12.4375 13.421875 -12.15625 L 12.640625 -8.15625 L 9.171875 -8.15625 C 9.179688 -8.300781 9.195312 -8.476562 9.21875 -8.6875 C 9.25 -8.894531 9.269531 -9.109375 9.28125 -9.328125 C 9.300781 -9.554688 9.316406 -9.78125 9.328125 -10 C 9.335938 -10.226562 9.34375 -10.421875 9.34375 -10.578125 C 9.34375 -10.691406 9.335938 -10.820312 9.328125 -10.96875 C 9.316406 -11.113281 9.28125 -11.253906 9.21875 -11.390625 C 9.164062 -11.523438 9.082031 -11.632812 8.96875 -11.71875 C 8.863281 -11.8125 8.707031 -11.859375 8.5 -11.859375 C 8.144531 -11.859375 7.816406 -11.707031 7.515625 -11.40625 C 7.222656 -11.113281 6.960938 -10.722656 6.734375 -10.234375 C 6.503906 -9.753906 6.300781 -9.203125 6.125 -8.578125 C 5.957031 -7.960938 5.8125 -7.335938 5.6875 -6.703125 C 5.570312 -6.066406 5.484375 -5.441406 5.421875 -4.828125 C 5.359375 -4.210938 5.328125 -3.679688 5.328125 -3.234375 C 5.328125 -3.097656 5.332031 -2.925781 5.34375 -2.71875 C 5.363281 -2.507812 5.410156 -2.304688 5.484375 -2.109375 C 5.554688 -1.910156 5.664062 -1.738281 5.8125 -1.59375 C 5.957031 -1.445312 6.171875 -1.375 6.453125 -1.375 C 6.898438 -1.375 7.335938 -1.617188 7.765625 -2.109375 C 8.191406 -2.609375 8.515625 -3.4375 8.734375 -4.59375 L 7 -4.59375 Z M 7.3125 -5.96875 "/></g></g><g style="fill:#3d3a3a;fill-opacity:1;"><g transform="translate(44.449085, 29.379163)"><path style="stroke:none" d="M 6.03125 -7.390625 L 11.125 -13.09375 L 13.453125 -13.09375 L 8.828125 -8.09375 L 11.96875 0 L 7.46875 0 L 5.65625 -5.75 L 4.453125 0 L 0 0 L 2.78125 -13.078125 L 7.25 -13.078125 Z M 6.03125 -7.390625 "/></g></g><g style="fill:#3d3a3a;fill-opacity:1;"><g transform="translate(56.968466, 29.379163)"><path style="stroke:none" d="M 5.5 -4.671875 C 5.425781 -4.367188 5.367188 -4.109375 5.328125 -3.890625 C 5.285156 -3.671875 5.265625 -3.46875 5.265625 -3.28125 C 5.265625 -2.789062 5.429688 -2.398438 5.765625 -2.109375 C 6.109375 -1.828125 6.609375 -1.6875 7.265625 -1.6875 C 7.742188 -1.6875 8.140625 -1.769531 8.453125 -1.9375 C 8.765625 -2.101562 9.019531 -2.320312 9.21875 -2.59375 C 9.414062 -2.863281 9.570312 -3.175781 9.6875 -3.53125 C 9.800781 -3.894531 9.898438 -4.273438 9.984375 -4.671875 L 11.734375 -13.078125 L 13.609375 -13.078125 L 11.828125 -4.640625 C 11.679688 -3.972656 11.476562 -3.351562 11.21875 -2.78125 C 10.957031 -2.207031 10.582031 -1.695312 10.09375 -1.25 C 9.613281 -0.8125 8.988281 -0.460938 8.21875 -0.203125 C 7.445312 0.046875 6.492188 0.171875 5.359375 0.171875 C 3.773438 0.171875 2.601562 -0.0820312 1.84375 -0.59375 C 1.09375 -1.113281 0.71875 -1.910156 0.71875 -2.984375 C 0.71875 -3.460938 0.78125 -4.070312 0.90625 -4.8125 C 1.03125 -5.5625 1.1875 -6.367188 1.375 -7.234375 L 2.640625 -13.078125 L 7.3125 -13.078125 Z M 5.5 -4.671875 "/></g></g><g style="fill:#3d3a3a;fill-opacity:1;"><g transform="translate(69.940848, 29.379163)"><path style="stroke:none" d="M 12.546875 -11.515625 L 9.21875 -11.515625 L 6.78125 0 L 2.328125 0 L 4.78125 -11.515625 L 1.5 -11.515625 L 1.875 -13.078125 L 12.890625 -13.078125 Z M 12.546875 -11.515625 "/></g></g><g style="fill:#3d3a3a;fill-opacity:1;"><g transform="translate(81.3689, 29.379163)"><path style="stroke:none" d="M 4.453125 0 L 0 0 L 2.78125 -13.078125 L 7.25 -13.078125 Z M 4.453125 0 "/></g></g><g style="fill:#3d3a3a;fill-opacity:1;"><g transform="translate(88.081593, 29.379163)"><path style="stroke:none" d="M 10.96875 0 L 6.15625 0 L 3.875 -9.453125 L 1.859375 0 L 0 0 L 2.78125 -13.078125 L 7.703125 -13.078125 L 9.859375 -3.5 L 11.90625 -13.078125 L 13.796875 -13.078125 Z M 10.96875 0 "/></g></g><g style="fill:#3d3a3a;fill-opacity:1;"><g transform="translate(59.744169, 45.875532)"><path style="stroke:none" d="M 11.207031 0.972656 L 5.582031 0.972656 L 5.21875 -3.128906 L 6.1875 -3.214844 L 6.1875 -2.242188 L 2.449219 -2.242188 L 2.449219 -3.214844 L 3.335938 -2.820312 L 1.644531 0.972656 L -2.476562 0.972656 L 4.394531 -13.816406 L 10.683594 -13.816406 L 12.289062 0.972656 Z M 11.207031 -0.972656 L 11.207031 0 L 10.238281 0.105469 L 8.84375 -12.738281 L 9.808594 -12.84375 L 9.808594 -11.871094 L 5.015625 -11.871094 L 5.015625 -12.84375 L 5.898438 -12.433594 L -0.0664062 0.410156 L -0.949219 0 L -0.949219 -0.972656 L 1.011719 -0.972656 L 1.011719 0 L 0.121094 -0.398438 L 1.816406 -4.191406 L 7.082031 -4.191406 L 7.441406 -0.0859375 L 6.472656 0 L 6.472656 -0.972656 Z M 3.113281 -5.667969 L 6.046875 -5.667969 L 6.046875 -4.691406 L 5.078125 -4.609375 L 4.613281 -10.113281 L 5.582031 -10.195312 L 6.472656 -9.796875 L 4.003906 -4.292969 L 3.113281 -4.691406 Z M 1.613281 -3.71875 L 6.234375 -14.027344 L 7.105469 -3.71875 Z M 1.613281 -3.71875 "/></g></g><g style="fill:#3d3a3a;fill-opacity:1;"><g transform="translate(71.920821, 45.875532)"><path style="stroke:none" d="M 0.28125 -5.726562 L 5.058594 -5.726562 L 5.058594 -4.753906 C 5.058594 -4.644531 5.035156 -4.476562 4.988281 -4.253906 C 4.953125 -4.105469 4.917969 -3.929688 4.878906 -3.722656 C 4.84375 -3.527344 4.808594 -3.308594 4.777344 -3.070312 C 4.75 -2.855469 4.734375 -2.660156 4.734375 -2.488281 C 4.734375 -2.410156 4.742188 -2.328125 4.761719 -2.238281 C 4.769531 -2.1875 4.785156 -2.140625 4.804688 -2.101562 C 4.796875 -2.117188 4.792969 -2.125 4.789062 -2.128906 C 4.761719 -2.144531 4.738281 -2.15625 4.710938 -2.164062 L 4.710938 -2.167969 C 4.726562 -2.167969 4.738281 -2.167969 4.746094 -2.167969 C 4.742188 -2.167969 4.742188 -2.167969 4.738281 -2.167969 L 4.734375 -2.164062 C 4.742188 -2.171875 4.753906 -2.183594 4.761719 -2.199219 C 4.890625 -2.375 5.023438 -2.78125 5.15625 -3.417969 L 7.363281 -13.816406 L 13.742188 -13.816406 L 11.511719 -3.355469 C 11.296875 -2.394531 10.921875 -1.605469 10.378906 -0.988281 C 9.863281 -0.394531 9.261719 0.0625 8.585938 0.390625 C 7.933594 0.707031 7.238281 0.914062 6.503906 1.015625 C 5.828125 1.109375 5.175781 1.15625 4.550781 1.15625 C 3.820312 1.15625 3.179688 1.105469 2.636719 1.007812 C 2.078125 0.90625 1.578125 0.761719 1.136719 0.570312 C 0.6875 0.371094 0.28125 0.128906 -0.078125 -0.160156 C -0.398438 -0.414062 -0.71875 -0.691406 -1.035156 -0.996094 L -1.429688 -1.371094 L -0.503906 -5.726562 Z M 0.28125 -3.78125 L 0.28125 -4.753906 L 1.234375 -4.550781 L 0.589844 -1.496094 L -0.363281 -1.699219 L 0.308594 -2.402344 C 0.582031 -2.140625 0.859375 -1.898438 1.132812 -1.683594 C 1.363281 -1.5 1.625 -1.34375 1.917969 -1.214844 C 2.21875 -1.085938 2.574219 -0.980469 2.984375 -0.90625 C 3.414062 -0.828125 3.933594 -0.792969 4.550781 -0.792969 C 5.085938 -0.792969 5.648438 -0.832031 6.238281 -0.914062 C 6.769531 -0.988281 7.269531 -1.136719 7.738281 -1.363281 C 8.179688 -1.574219 8.570312 -1.878906 8.917969 -2.269531 C 9.238281 -2.636719 9.46875 -3.132812 9.605469 -3.761719 L 11.589844 -13.046875 L 12.539062 -12.84375 L 12.539062 -11.871094 L 8.152344 -11.871094 L 8.152344 -12.84375 L 9.105469 -12.640625 L 7.0625 -3.015625 C 6.871094 -2.113281 6.632812 -1.460938 6.34375 -1.058594 C 6.148438 -0.789062 5.910156 -0.582031 5.632812 -0.4375 C 5.351562 -0.292969 5.046875 -0.21875 4.710938 -0.21875 C 4.324219 -0.21875 3.980469 -0.320312 3.6875 -0.523438 C 3.425781 -0.699219 3.226562 -0.925781 3.082031 -1.195312 C 2.96875 -1.410156 2.890625 -1.644531 2.84375 -1.890625 C 2.808594 -2.09375 2.789062 -2.292969 2.789062 -2.488281 C 2.789062 -2.746094 2.808594 -3.023438 2.847656 -3.324219 C 2.882812 -3.597656 2.921875 -3.851562 2.96875 -4.082031 C 3.007812 -4.308594 3.046875 -4.503906 3.085938 -4.667969 C 3.097656 -4.730469 3.109375 -4.78125 3.113281 -4.816406 C 3.117188 -4.824219 3.117188 -4.828125 3.117188 -4.828125 C 3.113281 -4.808594 3.113281 -4.78125 3.113281 -4.753906 L 4.085938 -4.753906 L 4.085938 -3.78125 Z M 0.28125 -3.78125 "/></g></g><g style="fill:#3d3a3a;fill-opacity:1;"><g transform="translate(83.854755, 45.875532)"><path style="stroke:none" d="M 11.207031 0.972656 L 5.582031 0.972656 L 5.21875 -3.128906 L 6.1875 -3.214844 L 6.1875 -2.242188 L 2.449219 -2.242188 L 2.449219 -3.214844 L 3.335938 -2.820312 L 1.644531 0.972656 L -2.476562 0.972656 L 4.394531 -13.816406 L 10.683594 -13.816406 L 12.289062 0.972656 Z M 11.207031 -0.972656 L 11.207031 0 L 10.238281 0.105469 L 8.84375 -12.738281 L 9.808594 -12.84375 L 9.808594 -11.871094 L 5.015625 -11.871094 L 5.015625 -12.84375 L 5.898438 -12.433594 L -0.0664062 0.410156 L -0.949219 0 L -0.949219 -0.972656 L 1.011719 -0.972656 L 1.011719 0 L 0.121094 -0.398438 L 1.816406 -4.191406 L 7.082031 -4.191406 L 7.441406 -0.0859375 L 6.472656 0 L 6.472656 -0.972656 Z M 3.113281 -5.667969 L 6.046875 -5.667969 L 6.046875 -4.691406 L 5.078125 -4.609375 L 4.613281 -10.113281 L 5.582031 -10.195312 L 6.472656 -9.796875 L 4.003906 -4.292969 L 3.113281 -4.691406 Z M 1.613281 -3.71875 L 6.234375 -14.027344 L 7.105469 -3.71875 Z M 1.613281 -3.71875 "/></g></g><g style="fill:#ffffff;fill-opacity:1;"><g transform="translate(59.744169, 45.875532)"><path style="stroke:none" d="M 11.203125 0 L 6.46875 0 L 6.1875 -3.21875 L 2.453125 -3.21875 L 1.015625 0 L -0.953125 0 L 5.015625 -12.84375 L 9.8125 -12.84375 Z M 3.109375 -4.6875 L 6.046875 -4.6875 L 5.578125 -10.203125 Z M 3.109375 -4.6875 "/></g></g><g style="fill:#ffffff;fill-opacity:1;"><g transform="translate(71.920821, 45.875532)"><path style="stroke:none" d="M 0.28125 -4.75 L 4.09375 -4.75 C 4.09375 -4.707031 4.070312 -4.609375 4.03125 -4.453125 C 4 -4.304688 3.960938 -4.125 3.921875 -3.90625 C 3.878906 -3.6875 3.84375 -3.445312 3.8125 -3.1875 C 3.78125 -2.9375 3.765625 -2.703125 3.765625 -2.484375 C 3.765625 -2.347656 3.773438 -2.207031 3.796875 -2.0625 C 3.828125 -1.914062 3.875 -1.773438 3.9375 -1.640625 C 4.007812 -1.515625 4.109375 -1.40625 4.234375 -1.3125 C 4.367188 -1.226562 4.53125 -1.1875 4.71875 -1.1875 C 5.0625 -1.1875 5.335938 -1.332031 5.546875 -1.625 C 5.765625 -1.914062 5.953125 -2.445312 6.109375 -3.21875 L 8.15625 -12.84375 L 12.546875 -12.84375 L 10.5625 -3.5625 C 10.382812 -2.769531 10.078125 -2.125 9.640625 -1.625 C 9.210938 -1.132812 8.71875 -0.753906 8.15625 -0.484375 C 7.601562 -0.210938 7.007812 -0.0351562 6.375 0.046875 C 5.738281 0.140625 5.128906 0.1875 4.546875 0.1875 C 3.878906 0.1875 3.300781 0.140625 2.8125 0.046875 C 2.320312 -0.0351562 1.890625 -0.15625 1.515625 -0.3125 C 1.148438 -0.476562 0.816406 -0.679688 0.515625 -0.921875 C 0.222656 -1.160156 -0.0664062 -1.421875 -0.359375 -1.703125 Z M 0.28125 -4.75 "/></g></g><g style="fill:#ffffff;fill-opacity:1;"><g transform="translate(83.854755, 45.875532)"><path style="stroke:none" d="M 11.203125 0 L 6.46875 0 L 6.1875 -3.21875 L 2.453125 -3.21875 L 1.015625 0 L -0.953125 0 L 5.015625 -12.84375 L 9.8125 -12.84375 Z M 3.109375 -4.6875 L 6.046875 -4.6875 L 5.578125 -10.203125 Z M 3.109375 -4.6875 "/></g></g><g clip-rule="nonzero" clip-path="url(#ec5f739dd5)"><path style=" stroke:none;fill-rule:nonzero;fill:#3d3a3a;fill-opacity:1;" d="M 141.890625 57.609375 L 136.535156 57.609375 C 135.355469 57.609375 134.394531 56.652344 134.394531 55.46875 C 134.394531 54.285156 135.355469 53.328125 136.535156 53.328125 L 140.113281 53.328125 L 143 37.941406 C 142.960938 30.070312 136.234375 23.34375 127.96875 23.34375 L 113.90625 23.34375 L 107.09375 53.328125 L 119.402344 53.328125 C 120.585938 53.328125 121.542969 54.285156 121.542969 55.46875 C 121.542969 56.652344 120.585938 57.609375 119.402344 57.609375 L 104.410156 57.609375 C 103.761719 57.609375 103.144531 57.316406 102.738281 56.804688 C 102.328125 56.300781 102.175781 55.632812 102.320312 54.996094 L 110.109375 20.730469 C 110.332031 19.75 111.195312 19.0625 112.199219 19.0625 L 127.96875 19.0625 C 138.597656 19.0625 147.242188 27.710938 147.242188 38.335938 L 143.992188 55.863281 C 143.804688 56.878906 142.921875 57.609375 141.890625 57.609375 Z M 141.890625 57.609375 "/></g><g clip-rule="nonzero" clip-path="url(#5ac784df9d)"><path style=" stroke:none;fill-rule:nonzero;fill:#3d3a3a;fill-opacity:1;" d="M 127.96875 66.175781 C 122.066406 66.175781 117.261719 61.375 117.261719 55.46875 C 117.261719 49.5625 122.066406 44.761719 127.96875 44.761719 C 133.871094 44.761719 138.675781 49.5625 138.675781 55.46875 C 138.675781 61.375 133.871094 66.175781 127.96875 66.175781 Z M 127.96875 49.042969 C 124.425781 49.042969 121.542969 51.925781 121.542969 55.46875 C 121.542969 59.011719 124.425781 61.894531 127.96875 61.894531 C 131.511719 61.894531 134.394531 59.011719 134.394531 55.46875 C 134.394531 51.925781 131.511719 49.042969 127.96875 49.042969 Z M 127.96875 49.042969 "/></g><g clip-rule="nonzero" clip-path="url(#07cf82b0bd)"><path style=" stroke:none;fill-rule:nonzero;fill:#3d3a3a;fill-opacity:1;" d="M 104.410156 57.609375 L 89.417969 57.609375 C 88.238281 57.609375 87.277344 56.652344 87.277344 55.46875 C 87.277344 54.285156 88.238281 53.328125 89.417969 53.328125 L 102.703125 53.328125 L 112.433594 10.496094 L 63.71875 10.496094 C 62.539062 10.496094 61.578125 9.535156 61.578125 8.351562 C 61.578125 7.171875 62.539062 6.210938 63.71875 6.210938 L 115.121094 6.210938 C 115.769531 6.210938 116.386719 6.507812 116.792969 7.015625 C 117.199219 7.523438 117.355469 8.191406 117.210938 8.824219 L 106.5 55.941406 C 106.277344 56.921875 105.410156 57.609375 104.410156 57.609375 Z M 104.410156 57.609375 "/></g><g clip-rule="nonzero" clip-path="url(#0321960131)"><path style=" stroke:none;fill-rule:nonzero;fill:#3d3a3a;fill-opacity:1;" d="M 95.398438 52.269531 L 99.203125 58.855469 L 37.46875 58.855469 L 33.667969 52.269531 Z M 95.398438 52.269531 "/></g><g clip-rule="nonzero" clip-path="url(#198c4d427a)"><path style=" stroke:none;fill-rule:nonzero;fill:#3d3a3a;fill-opacity:1;" d="M 33.007812 52.269531 L 36.8125 58.855469 L 33.519531 58.855469 L 29.714844 52.269531 Z M 33.007812 52.269531 "/></g><g clip-rule="nonzero" clip-path="url(#59656bd23f)"><path style=" stroke:none;fill-rule:nonzero;fill:#3d3a3a;fill-opacity:1;" d="M 28.835938 52.269531 L 32.640625 58.855469 L 30.003906 58.855469 L 26.203125 52.269531 Z M 28.835938 52.269531 "/></g><g clip-rule="nonzero" clip-path="url(#107a2ee6a8)"><path style=" stroke:none;fill-rule:nonzero;fill:#3d3a3a;fill-opacity:1;" d="M 25.105469 52.269531 L 28.90625 58.855469 L 26.800781 58.855469 L 22.996094 52.269531 Z M 25.105469 52.269531 "/></g><g clip-rule="nonzero" clip-path="url(#807ec94d77)"><path style=" stroke:none;fill-rule:nonzero;fill:#3d3a3a;fill-opacity:1;" d="M 21.679688 52.269531 L 25.484375 58.855469 L 24.429688 58.855469 L 20.625 52.269531 Z M 21.679688 52.269531 "/></g><g clip-rule="nonzero" clip-path="url(#72b39444a6)"><path style=" stroke:none;fill-rule:nonzero;fill:#3d3a3a;fill-opacity:1;" d="M 19.089844 52.269531 L 22.890625 58.855469 L 22.367188 58.855469 L 18.5625 52.269531 Z M 19.089844 52.269531 "/></g><g style="fill:#3d3a3a;fill-opacity:1;"><g transform="translate(9.299881, 67.383426)"><path style="stroke:none" d="M 2.1875 0.078125 C 1.75 0.078125 1.378906 -0.015625 1.078125 -0.203125 C 0.773438 -0.398438 0.5625 -0.664062 0.4375 -1 C 0.3125 -1.34375 0.289062 -1.726562 0.375 -2.15625 C 0.457031 -2.570312 0.613281 -2.9375 0.84375 -3.25 C 1.082031 -3.570312 1.375 -3.820312 1.71875 -4 C 2.0625 -4.175781 2.441406 -4.265625 2.859375 -4.265625 C 3.210938 -4.265625 3.53125 -4.191406 3.8125 -4.046875 C 4.09375 -3.910156 4.316406 -3.71875 4.484375 -3.46875 C 4.648438 -3.226562 4.738281 -2.941406 4.75 -2.609375 L 3.78125 -2.609375 C 3.75 -2.835938 3.644531 -3.019531 3.46875 -3.15625 C 3.300781 -3.289062 3.085938 -3.359375 2.828125 -3.359375 C 2.578125 -3.359375 2.347656 -3.300781 2.140625 -3.1875 C 1.929688 -3.082031 1.753906 -2.929688 1.609375 -2.734375 C 1.472656 -2.546875 1.378906 -2.320312 1.328125 -2.0625 C 1.285156 -1.8125 1.289062 -1.59375 1.34375 -1.40625 C 1.40625 -1.226562 1.515625 -1.082031 1.671875 -0.96875 C 1.835938 -0.863281 2.035156 -0.8125 2.265625 -0.8125 C 2.535156 -0.8125 2.789062 -0.878906 3.03125 -1.015625 C 3.269531 -1.160156 3.457031 -1.351562 3.59375 -1.59375 L 4.59375 -1.59375 C 4.445312 -1.238281 4.253906 -0.9375 4.015625 -0.6875 C 3.773438 -0.4375 3.5 -0.242188 3.1875 -0.109375 C 2.882812 0.015625 2.550781 0.078125 2.1875 0.078125 Z M 2.1875 0.078125 "/></g></g><g style="fill:#3d3a3a;fill-opacity:1;"><g transform="translate(16.038048, 67.383426)"><path style="stroke:none" d="M 0.1875 0 L 1.03125 -4.171875 L 3.765625 -4.171875 L 3.609375 -3.375 L 1.828125 -3.375 L 1.65625 -2.515625 L 3.28125 -2.515625 L 3.125 -1.71875 L 1.5 -1.71875 L 1.3125 -0.8125 L 3.15625 -0.8125 L 3 0 Z M 0.1875 0 "/></g></g><g style="fill:#3d3a3a;fill-opacity:1;"><g transform="translate(21.581853, 67.383426)"><path style="stroke:none" d="M 0.1875 0 L 1.03125 -4.171875 L 2.640625 -4.171875 C 2.972656 -4.171875 3.25 -4.101562 3.46875 -3.96875 C 3.695312 -3.832031 3.859375 -3.644531 3.953125 -3.40625 C 4.046875 -3.164062 4.0625 -2.882812 4 -2.5625 C 3.914062 -2.113281 3.703125 -1.765625 3.359375 -1.515625 C 3.023438 -1.273438 2.597656 -1.15625 2.078125 -1.15625 L 1.390625 -1.15625 L 1.15625 0 Z M 1.546875 -1.984375 L 2.125 -1.984375 C 2.382812 -1.984375 2.59375 -2.046875 2.75 -2.171875 C 2.90625 -2.296875 3.007812 -2.460938 3.0625 -2.671875 C 3.09375 -2.878906 3.054688 -3.039062 2.953125 -3.15625 C 2.859375 -3.28125 2.679688 -3.34375 2.421875 -3.34375 L 1.828125 -3.34375 Z M 1.546875 -1.984375 "/></g></g><g style="fill:#3d3a3a;fill-opacity:1;"><g transform="translate(27.477993, 67.383426)"><path style="stroke:none" d="M -0.25 0 L 2.234375 -4.171875 L 3.171875 -4.171875 L 4 0 L 3.046875 0 L 2.90625 -0.71875 L 1.25 -0.71875 L 0.8125 0 Z M 1.640625 -1.46875 L 2.8125 -1.46875 L 2.515625 -3 Z M 1.640625 -1.46875 "/></g></g><g style="fill:#3d3a3a;fill-opacity:1;"><g transform="translate(33.756329, 67.383426)"><path style="stroke:none" d="M 1.1875 0 L 1.84375 -3.28125 L 0.53125 -3.28125 L 0.703125 -4.171875 L 4.296875 -4.171875 L 4.125 -3.28125 L 2.8125 -3.28125 L 2.15625 0 Z M 1.1875 0 "/></g></g><g style="fill:#3d3a3a;fill-opacity:1;"><g transform="translate(39.634554, 67.383426)"><path style="stroke:none" d="M 0.09375 0.484375 C 0.332031 0.429688 0.488281 0.289062 0.5625 0.0625 L 0.515625 0.0625 C 0.347656 0.0625 0.21875 0.00390625 0.125 -0.109375 C 0.03125 -0.222656 0 -0.363281 0.03125 -0.53125 C 0.0625 -0.675781 0.128906 -0.789062 0.234375 -0.875 C 0.347656 -0.96875 0.488281 -1.015625 0.65625 -1.015625 C 0.851562 -1.015625 1.003906 -0.9375 1.109375 -0.78125 C 1.210938 -0.625 1.238281 -0.414062 1.1875 -0.15625 C 1.15625 0.0390625 1.082031 0.21875 0.96875 0.375 C 0.851562 0.539062 0.710938 0.675781 0.546875 0.78125 C 0.378906 0.882812 0.195312 0.945312 0 0.96875 Z M 0.09375 0.484375 "/></g></g><g style="fill:#3d3a3a;fill-opacity:1;"><g transform="translate(43.273349, 67.383426)"><path style="stroke:none" d=""/></g></g><g style="fill:#3d3a3a;fill-opacity:1;"><g transform="translate(46.595633, 67.383426)"><path style="stroke:none" d="M -0.25 0 L 2.234375 -4.171875 L 3.171875 -4.171875 L 4 0 L 3.046875 0 L 2.90625 -0.71875 L 1.25 -0.71875 L 0.8125 0 Z M 1.640625 -1.46875 L 2.8125 -1.46875 L 2.515625 -3 Z M 1.640625 -1.46875 "/></g></g><g style="fill:#3d3a3a;fill-opacity:1;"><g transform="translate(52.873969, 67.383426)"><path style="stroke:none" d="M 0.1875 0 L 1.03125 -4.171875 L 1.765625 -4.171875 L 2.828125 -2.015625 L 4.734375 -4.171875 L 5.609375 -4.171875 L 4.78125 0 L 3.8125 0 L 4.09375 -1.375 L 4.328125 -2.5 L 3.03125 -1.03125 L 2.375 -1.03125 L 1.671875 -2.515625 L 1.421875 -1.375 L 1.15625 0 Z M 0.1875 0 "/></g></g><g style="fill:#3d3a3a;fill-opacity:1;"><g transform="translate(60.388477, 67.383426)"><path style="stroke:none" d="M -0.25 0 L 2.234375 -4.171875 L 3.171875 -4.171875 L 4 0 L 3.046875 0 L 2.90625 -0.71875 L 1.25 -0.71875 L 0.8125 0 Z M 1.640625 -1.46875 L 2.8125 -1.46875 L 2.515625 -3 Z M 1.640625 -1.46875 "/></g></g><g style="fill:#3d3a3a;fill-opacity:1;"><g transform="translate(66.666814, 67.383426)"><path style="stroke:none" d="M 0.1875 0 L 1.03125 -4.171875 L 1.796875 -4.171875 L 3.15625 -1.59375 L 3.28125 -2.28125 L 3.671875 -4.171875 L 4.609375 -4.171875 L 3.78125 0 L 3.015625 0 L 1.65625 -2.578125 L 1.53125 -1.96875 L 1.140625 0 Z M 0.1875 0 "/></g></g><g style="fill:#3d3a3a;fill-opacity:1;"><g transform="translate(73.184023, 67.383426)"><path style="stroke:none" d="M 0.09375 0.484375 C 0.332031 0.429688 0.488281 0.289062 0.5625 0.0625 L 0.515625 0.0625 C 0.347656 0.0625 0.21875 0.00390625 0.125 -0.109375 C 0.03125 -0.222656 0 -0.363281 0.03125 -0.53125 C 0.0625 -0.675781 0.128906 -0.789062 0.234375 -0.875 C 0.347656 -0.96875 0.488281 -1.015625 0.65625 -1.015625 C 0.851562 -1.015625 1.003906 -0.9375 1.109375 -0.78125 C 1.210938 -0.625 1.238281 -0.414062 1.1875 -0.15625 C 1.15625 0.0390625 1.082031 0.21875 0.96875 0.375 C 0.851562 0.539062 0.710938 0.675781 0.546875 0.78125 C 0.378906 0.882812 0.195312 0.945312 0 0.96875 Z M 0.09375 0.484375 "/></g></g><g style="fill:#3d3a3a;fill-opacity:1;"><g transform="translate(76.822817, 67.383426)"><path style="stroke:none" d=""/></g></g><g style="fill:#3d3a3a;fill-opacity:1;"><g transform="translate(80.145101, 67.383426)"><path style="stroke:none" d="M 1.1875 0 L 1.84375 -3.28125 L 0.53125 -3.28125 L 0.703125 -4.171875 L 4.296875 -4.171875 L 4.125 -3.28125 L 2.8125 -3.28125 L 2.15625 0 Z M 1.1875 0 "/></g></g><g style="fill:#3d3a3a;fill-opacity:1;"><g transform="translate(86.023326, 67.383426)"><path style="stroke:none" d="M 1.96875 0.078125 C 1.59375 0.078125 1.28125 0.00390625 1.03125 -0.140625 C 0.789062 -0.296875 0.625 -0.507812 0.53125 -0.78125 C 0.4375 -1.0625 0.425781 -1.390625 0.5 -1.765625 L 0.984375 -4.171875 L 1.953125 -4.171875 L 1.46875 -1.765625 C 1.34375 -1.128906 1.535156 -0.8125 2.046875 -0.8125 C 2.585938 -0.8125 2.921875 -1.140625 3.046875 -1.796875 L 3.515625 -4.171875 L 4.484375 -4.171875 L 4 -1.6875 C 3.882812 -1.113281 3.648438 -0.675781 3.296875 -0.375 C 2.953125 -0.0703125 2.507812 0.078125 1.96875 0.078125 Z M 1.96875 0.078125 "/></g></g><g style="fill:#3d3a3a;fill-opacity:1;"><g transform="translate(92.373328, 67.383426)"><path style="stroke:none" d="M 0.1875 0 L 1.03125 -4.171875 L 1.796875 -4.171875 L 3.15625 -1.59375 L 3.28125 -2.28125 L 3.671875 -4.171875 L 4.609375 -4.171875 L 3.78125 0 L 3.015625 0 L 1.65625 -2.578125 L 1.53125 -1.96875 L 1.140625 0 Z M 0.1875 0 "/></g></g><g style="fill:#3d3a3a;fill-opacity:1;"><g transform="translate(98.890537, 67.383426)"><path style="stroke:none" d="M 1.1875 0 L 1.84375 -3.28125 L 0.53125 -3.28125 L 0.703125 -4.171875 L 4.296875 -4.171875 L 4.125 -3.28125 L 2.8125 -3.28125 L 2.15625 0 Z M 1.1875 0 "/></g></g><g style="fill:#3d3a3a;fill-opacity:1;"><g transform="translate(104.768762, 67.383426)"><path style="stroke:none" d="M -0.25 0 L 2.234375 -4.171875 L 3.171875 -4.171875 L 4 0 L 3.046875 0 L 2.90625 -0.71875 L 1.25 -0.71875 L 0.8125 0 Z M 1.640625 -1.46875 L 2.8125 -1.46875 L 2.515625 -3 Z M 1.640625 -1.46875 "/></g></g><g style="fill:#3d3a3a;fill-opacity:1;"><g transform="translate(111.047099, 67.383426)"><path style="stroke:none" d="M 1.6875 0.078125 C 1.332031 0.078125 1.035156 0.0234375 0.796875 -0.078125 C 0.554688 -0.191406 0.382812 -0.351562 0.28125 -0.5625 C 0.1875 -0.78125 0.164062 -1.035156 0.21875 -1.328125 L 1.140625 -1.328125 C 1.109375 -1.128906 1.144531 -0.972656 1.25 -0.859375 C 1.351562 -0.753906 1.519531 -0.703125 1.75 -0.703125 C 1.96875 -0.703125 2.140625 -0.738281 2.265625 -0.8125 C 2.390625 -0.894531 2.46875 -1.003906 2.5 -1.140625 C 2.53125 -1.285156 2.492188 -1.40625 2.390625 -1.5 C 2.285156 -1.601562 2.09375 -1.6875 1.8125 -1.75 C 1.351562 -1.84375 1.015625 -2.003906 0.796875 -2.234375 C 0.585938 -2.460938 0.519531 -2.765625 0.59375 -3.140625 C 0.65625 -3.472656 0.832031 -3.742188 1.125 -3.953125 C 1.425781 -4.160156 1.816406 -4.265625 2.296875 -4.265625 C 2.804688 -4.265625 3.191406 -4.140625 3.453125 -3.890625 C 3.710938 -3.640625 3.8125 -3.304688 3.75 -2.890625 L 2.828125 -2.890625 C 2.859375 -3.066406 2.820312 -3.207031 2.71875 -3.3125 C 2.625 -3.425781 2.460938 -3.484375 2.234375 -3.484375 C 2.035156 -3.484375 1.875 -3.441406 1.75 -3.359375 C 1.625 -3.285156 1.550781 -3.1875 1.53125 -3.0625 C 1.5 -2.90625 1.535156 -2.78125 1.640625 -2.6875 C 1.742188 -2.601562 1.941406 -2.523438 2.234375 -2.453125 C 2.703125 -2.347656 3.039062 -2.175781 3.25 -1.9375 C 3.457031 -1.707031 3.523438 -1.421875 3.453125 -1.078125 C 3.390625 -0.722656 3.203125 -0.441406 2.890625 -0.234375 C 2.585938 -0.0234375 2.1875 0.078125 1.6875 0.078125 Z M 1.6875 0.078125 "/></g></g></g></svg>